
<svg xmlns="http://www.w3.org/2000/svg" version="1.1" xmlns:xlink="http://www.w3.org/1999/xlink" preserveAspectRatio="none" x="0px" y="0px" width="47px" height="51px" viewBox="0 0 47 51">
<defs>
<linearGradient id="Gradient_1" gradientUnits="userSpaceOnUse" x1="373.0375" y1="335.9125" x2="840.4625" y2="-131.5125" spreadMethod="pad">
<stop  offset="0%" stop-color="#3AE5FF"/>

<stop  offset="100%" stop-color="#000BFF"/>
</linearGradient>

<linearGradient id="Gradient_2" gradientUnits="userSpaceOnUse" x1="303.69999999999993" y1="342.55" x2="765.1" y2="-118.85000000000002" spreadMethod="pad">
<stop  offset="0%" stop-color="#3AE5FF"/>

<stop  offset="100%" stop-color="#000BFF"/>
</linearGradient>

<linearGradient id="Gradient_3" gradientUnits="userSpaceOnUse" x1="410.2875" y1="525.0125" x2="865.6125000000001" y2="69.6875" spreadMethod="pad">
<stop  offset="0%" stop-color="#3AE5FF"/>

<stop  offset="100%" stop-color="#000BFF"/>
</linearGradient>

<linearGradient id="Gradient_4" gradientUnits="userSpaceOnUse" x1="165.03749999999997" y1="279.76250000000005" x2="620.3625" y2="-175.56250000000003" spreadMethod="pad">
<stop  offset="0%" stop-color="#3AE5FF"/>

<stop  offset="100%" stop-color="#000BFF"/>
</linearGradient>

<linearGradient id="Gradient_5" gradientUnits="userSpaceOnUse" x1="403.5" y1="594.05" x2="852.8" y2="144.74999999999997" spreadMethod="pad">
<stop  offset="0%" stop-color="#3AE5FF"/>

<stop  offset="100%" stop-color="#000BFF"/>
</linearGradient>

<linearGradient id="Gradient_6" gradientUnits="userSpaceOnUse" x1="168.65" y1="359.20000000000005" x2="617.95" y2="-90.1" spreadMethod="pad">
<stop  offset="0%" stop-color="#3AE5FF"/>

<stop  offset="100%" stop-color="#000BFF"/>
</linearGradient>

<linearGradient id="Gradient_7" gradientUnits="userSpaceOnUse" x1="370.3875" y1="636.6125" x2="813.6125" y2="193.3875" spreadMethod="pad">
<stop  offset="0%" stop-color="#3AE5FF"/>

<stop  offset="100%" stop-color="#000BFF"/>
</linearGradient>

<linearGradient id="Gradient_8" gradientUnits="userSpaceOnUse" x1="205.58749999999998" y1="471.8125" x2="648.8125" y2="28.587499999999977" spreadMethod="pad">
<stop  offset="0%" stop-color="#3AE5FF"/>

<stop  offset="100%" stop-color="#000BFF"/>
</linearGradient>

<linearGradient id="Gradient_9" gradientUnits="userSpaceOnUse" x1="434.2375" y1="700.4625000000001" x2="877.4625000000001" y2="257.2375" spreadMethod="pad">
<stop  offset="0%" stop-color="#3AE5FF"/>

<stop  offset="100%" stop-color="#000BFF"/>
</linearGradient>

<linearGradient id="Gradient_10" gradientUnits="userSpaceOnUse" x1="345.3375" y1="687.1125" x2="782.4625" y2="249.9875" spreadMethod="pad">
<stop  offset="0%" stop-color="#3AE5FF"/>

<stop  offset="100%" stop-color="#000BFF"/>
</linearGradient>

<linearGradient id="Gradient_11" gradientUnits="userSpaceOnUse" x1="427.0375" y1="768.8625" x2="864.1625" y2="331.73749999999995" spreadMethod="pad">
<stop  offset="0%" stop-color="#3AE5FF"/>

<stop  offset="100%" stop-color="#000BFF"/>
</linearGradient>

<linearGradient id="Gradient_12" gradientUnits="userSpaceOnUse" x1="207.4375" y1="549.2125" x2="644.5625" y2="112.08749999999998" spreadMethod="pad">
<stop  offset="0%" stop-color="#3AE5FF"/>

<stop  offset="100%" stop-color="#000BFF"/>
</linearGradient>

<linearGradient id="Gradient_13" gradientUnits="userSpaceOnUse" x1="165.21249999999998" y1="582.3875" x2="596.1875" y2="151.41249999999997" spreadMethod="pad">
<stop  offset="0%" stop-color="#3AE5FF"/>

<stop  offset="100%" stop-color="#000BFF"/>
</linearGradient>

<linearGradient id="Gradient_14" gradientUnits="userSpaceOnUse" x1="285.7125" y1="702.9375" x2="716.6875" y2="271.9625" spreadMethod="pad">
<stop  offset="0%" stop-color="#3AE5FF"/>

<stop  offset="100%" stop-color="#000BFF"/>
</linearGradient>

<linearGradient id="Gradient_15" gradientUnits="userSpaceOnUse" x1="402.21250000000003" y1="819.3875" x2="833.1875" y2="388.41249999999997" spreadMethod="pad">
<stop  offset="0%" stop-color="#3AE5FF"/>

<stop  offset="100%" stop-color="#000BFF"/>
</linearGradient>

<linearGradient id="Gradient_16" gradientUnits="userSpaceOnUse" x1="344.1125" y1="761.3375000000001" x2="775.0875000000001" y2="330.3625" spreadMethod="pad">
<stop  offset="0%" stop-color="#3AE5FF"/>

<stop  offset="100%" stop-color="#000BFF"/>
</linearGradient>

<linearGradient id="Gradient_17" gradientUnits="userSpaceOnUse" x1="160.81249999999997" y1="653.1875" x2="585.5875" y2="228.4125" spreadMethod="pad">
<stop  offset="0%" stop-color="#3AE5FF"/>

<stop  offset="100%" stop-color="#000BFF"/>
</linearGradient>

<linearGradient id="Gradient_18" gradientUnits="userSpaceOnUse" x1="237.4625" y1="729.8375000000001" x2="662.2375000000001" y2="305.0625" spreadMethod="pad">
<stop  offset="0%" stop-color="#3AE5FF"/>

<stop  offset="100%" stop-color="#000BFF"/>
</linearGradient>

<linearGradient id="Gradient_19" gradientUnits="userSpaceOnUse" x1="390.01249999999993" y1="882.3875" x2="814.7875" y2="457.61249999999995" spreadMethod="pad">
<stop  offset="0%" stop-color="#3AE5FF"/>

<stop  offset="100%" stop-color="#000BFF"/>
</linearGradient>

<linearGradient id="Gradient_20" gradientUnits="userSpaceOnUse" x1="335.36249999999995" y1="827.7875" x2="760.1375" y2="403.01249999999993" spreadMethod="pad">
<stop  offset="0%" stop-color="#3AE5FF"/>

<stop  offset="100%" stop-color="#000BFF"/>
</linearGradient>

<linearGradient id="Gradient_21" gradientUnits="userSpaceOnUse" x1="398.2625" y1="965.5875000000001" x2="816.7375" y2="547.1125" spreadMethod="pad">
<stop  offset="0%" stop-color="#3AE5FF"/>

<stop  offset="100%" stop-color="#000BFF"/>
</linearGradient>

<linearGradient id="Gradient_22" gradientUnits="userSpaceOnUse" x1="176.21249999999998" y1="743.5374999999999" x2="594.6875" y2="325.06249999999994" spreadMethod="pad">
<stop  offset="0%" stop-color="#3AE5FF"/>

<stop  offset="100%" stop-color="#000BFF"/>
</linearGradient>

<linearGradient id="Gradient_23" gradientUnits="userSpaceOnUse" x1="339.56249999999994" y1="906.8875" x2="758.0374999999999" y2="488.41249999999997" spreadMethod="pad">
<stop  offset="0%" stop-color="#3AE5FF"/>

<stop  offset="100%" stop-color="#000BFF"/>
</linearGradient>

<linearGradient id="Gradient_24" gradientUnits="userSpaceOnUse" x1="404.2" y1="1046.2" x2="816.3" y2="634.0999999999999" spreadMethod="pad">
<stop  offset="0%" stop-color="#3AE5FF"/>

<stop  offset="100%" stop-color="#000BFF"/>
</linearGradient>

<linearGradient id="Gradient_25" gradientUnits="userSpaceOnUse" x1="346.7" y1="988.7" x2="758.8" y2="576.5999999999999" spreadMethod="pad">
<stop  offset="0%" stop-color="#3AE5FF"/>

<stop  offset="100%" stop-color="#000BFF"/>
</linearGradient>

<linearGradient id="Gradient_26" gradientUnits="userSpaceOnUse" x1="359.8375" y1="1076.3125" x2="765.4625" y2="670.6875" spreadMethod="pad">
<stop  offset="0%" stop-color="#3AE5FF"/>

<stop  offset="100%" stop-color="#000BFF"/>
</linearGradient>

<linearGradient id="Gradient_27" gradientUnits="userSpaceOnUse" x1="400.1875" y1="1116.6625" x2="805.8125" y2="711.0375" spreadMethod="pad">
<stop  offset="0%" stop-color="#3AE5FF"/>

<stop  offset="100%" stop-color="#000BFF"/>
</linearGradient>

<linearGradient id="Gradient_28" gradientUnits="userSpaceOnUse" x1="382.36249999999995" y1="1173.0375" x2="781.4375" y2="773.9625" spreadMethod="pad">
<stop  offset="0%" stop-color="#3AE5FF"/>

<stop  offset="100%" stop-color="#000BFF"/>
</linearGradient>

<g id="Symbol_4_0_Layer0_0_FILL">
<path fill="url(#Gradient_1)" stroke="none" d="
M 487.45 401.3
L 487.55 401.25 487.55 398.5
Q 487.55 361.95 455.3 339.5
L 294.9 234.15 487.45 401.3 Z"/>
</g>

<g id="Symbol_4_0_Layer0_1_FILL">
<path fill="url(#Gradient_2)" stroke="none" d="
M 420.05 390.7
Q 423.75 393.3 424.75 395 425.4 396.15 425.4 398.5
L 425.4 400.15 485.05 447.35 487.55 445.35 487.55 405.15 484.7 407.45 197.85 180.65
Q 184.8 180.8 174.25 187.2 169.45 190.1 165.15 194.4
L 380.75 364.9 420.05 390.7 Z"/>
</g>

<g id="Symbol_4_0_Layer0_2_FILL">
<path fill="url(#Gradient_3)" stroke="none" d="
M 713.6 317.1
Q 701.3 317.35 690.65 323
L 487.55 456.25 487.55 450.6 482.05 454.8 425.4 414.55 425.4 452.65 482.7 493.4 713.6 317.1 Z"/>
</g>

<g id="Symbol_4_0_Layer0_3_FILL">
<path fill="url(#Gradient_4)" stroke="none" d="
M 152.55 220.65
Q 151.85 225.45 151.85 229.15
L 151.85 258.3 214 302.45 214 264.3 152.55 220.65 Z"/>
</g>

<g id="Symbol_4_0_Layer0_4_FILL">
<path fill="url(#Gradient_5)" stroke="none" d="
M 738.7 323.6
Q 737.55 322.9 735.15 321.8
L 479.35 502.15 425.4 468.25 425.4 504.95 480.35 539.5 487.55 534.4
Q 487.6 532.4 488.35 531.2 489.45 529.5 492.85 527.1
L 567.05 478.35 756.85 344.55
Q 751 331 738.7 323.6 Z"/>
</g>

<g id="Symbol_4_0_Layer0_5_FILL">
<path fill="url(#Gradient_6)" stroke="none" d="
M 151.85 296.5
L 151.85 333.2 226.95 380.35 219.65 375.55
Q 215.75 372.85 214.7 371.1 214 369.9 214 367.55
L 214 335.5 151.85 296.5 Z"/>
</g>

<g id="Symbol_4_0_Layer0_6_FILL">
<path fill="url(#Gradient_7)" stroke="none" d="
M 487.55 579.45
L 487.55 542.45 476.65 549.5 425.4 521.65 425.4 542.15
Q 425.4 544.5 424.8 545.6 423.85 547.3 420.45 549.65
L 416.55 552.2 478.05 585.55 487.55 579.45 Z"/>
</g>

<g id="Symbol_4_0_Layer0_7_FILL">
<path fill="url(#Gradient_8)" stroke="none" d="
M 182.55 425.3
L 319.45 499.55 348.9 480.2 152.2 373.45
Q 154.55 404.6 182.55 425.3 Z"/>
</g>

<g id="Symbol_4_0_Layer0_8_FILL">
<path fill="url(#Gradient_9)" stroke="none" d="
M 698.95 406.25
L 698.95 443.25 761.1 403.15 761.1 366.2 698.95 406.25 Z"/>
</g>

<g id="Symbol_4_0_Layer0_9_FILL">
<path fill="url(#Gradient_10)" stroke="none" d="
M 399.9 563.15
L 369.2 583.35 475.7 631.7 487.55 624.8 487.55 588.85 473.95 596.75 399.9 563.15 Z"/>
</g>

<g id="Symbol_4_0_Layer0_10_FILL">
<path fill="url(#Gradient_11)" stroke="none" d="
M 761.1 465.75
L 761.1 429.85 698.95 465.95 698.95 501.9 761.1 465.75 Z"/>
</g>

<g id="Symbol_4_0_Layer0_11_FILL">
<path fill="url(#Gradient_12)" stroke="none" d="
M 264.35 535.75
L 295.05 515.55 228.1 485.15 197.4 505.35 264.35 535.75 Z"/>
</g>

<g id="Symbol_4_0_Layer0_12_FILL">
<path fill="url(#Gradient_13)" stroke="none" d="
M 214 583.85
L 214 573.05
Q 214 570.7 214.6 569.6 215.55 567.9 218.9 565.55
L 231.7 557.15 164.55 532.85
Q 155.3 545.6 152.8 561.65
L 214 583.85 Z"/>
</g>

<g id="Symbol_4_0_Layer0_13_FILL">
<path fill="url(#Gradient_14)" stroke="none" d="
M 418.9 625
L 345.95 598.6 313.5 619.9 386.4 646.3 418.9 625 Z"/>
</g>

<g id="Symbol_4_0_Layer0_14_FILL">
<path fill="url(#Gradient_15)" stroke="none" d="
M 755.05 532.55
Q 761.1 519.15 761.1 503.95
L 761.1 494.45 568.9 593.6 549 606.7 576.4 624.7 755.05 532.55 Z"/>
</g>

<g id="Symbol_4_0_Layer0_15_FILL">
<path fill="url(#Gradient_16)" stroke="none" d="
M 425.4 660.45
L 473.4 677.85 487.55 670.55 487.55 635.6 471.25 644 425.4 627.4 425.4 660.45 Z"/>
</g>

<g id="Symbol_4_0_Layer0_16_FILL">
<path fill="url(#Gradient_17)" stroke="none" d="
M 151.85 607.9
L 151.85 638.6 214 655.25 214 623.05 152.2 606.55 151.85 607.9 Z"/>
</g>

<g id="Symbol_4_0_Layer0_17_FILL">
<path fill="url(#Gradient_18)" stroke="none" d="
M 281.25 641.05
L 246.45 663.95 326.8 685.45 361.6 662.6 281.25 641.05 Z"/>
</g>

<g id="Symbol_4_0_Layer0_18_FILL">
<path fill="url(#Gradient_19)" stroke="none" d="
M 662.2 606.7
L 673.25 599.45 592.85 635.5 623.65 655.75 690.95 625.55 662.2 606.7 Z"/>
</g>

<g id="Symbol_4_0_Layer0_19_FILL">
<path fill="url(#Gradient_20)" stroke="none" d="
M 468.5 691.2
L 425.45 679.65
Q 425.75 698.9 435.45 714.55
L 471.15 724.1 518.2 702.95 493.15 686.5
Q 489.55 684 488.4 682.3
L 468.5 691.2 Z"/>
</g>

<g id="Symbol_4_0_Layer0_20_FILL">
<path fill="url(#Gradient_21)" stroke="none" d="
M 728.15 650
L 717.8 643.15 645.9 670.3 678 691.4 745.55 665.9
Q 738.05 656.9 728.15 650 Z"/>
</g>

<g id="Symbol_4_0_Layer0_21_FILL">
<path fill="url(#Gradient_22)" stroke="none" d="
M 151.85 711.45
Q 151.85 713.2 152.15 716.7
L 253.1 733.8 291.3 708.75 153.95 685.45 151.85 698.05 151.85 711.45 Z"/>
</g>

<g id="Symbol_4_0_Layer0_22_FILL">
<path fill="url(#Gradient_23)" stroke="none" d="
M 465.75 738.3
L 456.75 736.8 493.45 761.05 565.35 733.95 533.25 712.85 465.75 738.3 Z"/>
</g>

<g id="Symbol_4_0_Layer0_23_FILL">
<path fill="url(#Gradient_24)" stroke="none" d="
M 698.95 713.6
L 698.95 746.1 761.1 727.2 761.1 709.45
Q 761.1 702.8 759.6 695.2
L 698.95 713.6 Z"/>
</g>

<g id="Symbol_4_0_Layer0_24_FILL">
<path fill="url(#Gradient_25)" stroke="none" d="
M 620.3 770
L 586.5 747.8 509.1 771.35 542.9 793.55 620.3 770 Z"/>
</g>

<g id="Symbol_4_0_Layer0_25_FILL">
<path fill="url(#Gradient_26)" stroke="none" d="
M 565.45 808.35
L 601.5 832 685.6 812.9 649.55 789.2 565.45 808.35 Z"/>
</g>

<g id="Symbol_4_0_Layer0_26_FILL">
<path fill="url(#Gradient_27)" stroke="none" d="
M 761.1 763.85
L 698.95 778 698.95 809.85 761.1 795.7 761.1 763.85 Z"/>
</g>

<g id="Symbol_4_0_Layer0_27_FILL">
<path fill="url(#Gradient_28)" stroke="none" d="
M 757.95 866.15
Q 761.1 857.45 761.1 847.85
L 761.1 834.25 633.6 853.05 672.65 878.75 757.95 866.15 Z"/>
</g>
</defs>

<g transform="matrix( 0.69439697265625, 0, 0, 0.69439697265625, 1.2,2.35) ">
<g transform="matrix( 0.7286376953125, 0, 0, 0.7286376953125, 0.5,-2.9) ">
<g transform="matrix( 0.1421051025390625, 0, 0, 0.1421051025390625, -21.6,-25.65) ">
<use xlink:href="#Symbol_4_0_Layer0_0_FILL"/>
</g>

<g transform="matrix( 0.1421051025390625, 0, 0, 0.1421051025390625, -21.6,-25.65) ">
<use xlink:href="#Symbol_4_0_Layer0_1_FILL"/>
</g>

<g transform="matrix( 0.1421051025390625, 0, 0, 0.1421051025390625, -21.6,-25.65) ">
<use xlink:href="#Symbol_4_0_Layer0_2_FILL"/>
</g>

<g transform="matrix( 0.1421051025390625, 0, 0, 0.1421051025390625, -21.6,-25.65) ">
<use xlink:href="#Symbol_4_0_Layer0_3_FILL"/>
</g>

<g transform="matrix( 0.1421051025390625, 0, 0, 0.1421051025390625, -21.6,-25.65) ">
<use xlink:href="#Symbol_4_0_Layer0_4_FILL"/>
</g>

<g transform="matrix( 0.1421051025390625, 0, 0, 0.1421051025390625, -21.6,-25.65) ">
<use xlink:href="#Symbol_4_0_Layer0_5_FILL"/>
</g>

<g transform="matrix( 0.1421051025390625, 0, 0, 0.1421051025390625, -21.6,-25.65) ">
<use xlink:href="#Symbol_4_0_Layer0_6_FILL"/>
</g>

<g transform="matrix( 0.1421051025390625, 0, 0, 0.1421051025390625, -21.6,-25.65) ">
<use xlink:href="#Symbol_4_0_Layer0_7_FILL"/>
</g>

<g transform="matrix( 0.1421051025390625, 0, 0, 0.1421051025390625, -21.6,-25.65) ">
<use xlink:href="#Symbol_4_0_Layer0_8_FILL"/>
</g>

<g transform="matrix( 0.1421051025390625, 0, 0, 0.1421051025390625, -21.6,-25.65) ">
<use xlink:href="#Symbol_4_0_Layer0_9_FILL"/>
</g>

<g transform="matrix( 0.1421051025390625, 0, 0, 0.1421051025390625, -21.6,-25.65) ">
<use xlink:href="#Symbol_4_0_Layer0_10_FILL"/>
</g>

<g transform="matrix( 0.1421051025390625, 0, 0, 0.1421051025390625, -21.6,-25.65) ">
<use xlink:href="#Symbol_4_0_Layer0_11_FILL"/>
</g>

<g transform="matrix( 0.1421051025390625, 0, 0, 0.1421051025390625, -21.6,-25.65) ">
<use xlink:href="#Symbol_4_0_Layer0_12_FILL"/>
</g>

<g transform="matrix( 0.1421051025390625, 0, 0, 0.1421051025390625, -21.6,-25.65) ">
<use xlink:href="#Symbol_4_0_Layer0_13_FILL"/>
</g>

<g transform="matrix( 0.1421051025390625, 0, 0, 0.1421051025390625, -21.6,-25.65) ">
<use xlink:href="#Symbol_4_0_Layer0_14_FILL"/>
</g>

<g transform="matrix( 0.1421051025390625, 0, 0, 0.1421051025390625, -21.6,-25.65) ">
<use xlink:href="#Symbol_4_0_Layer0_15_FILL"/>
</g>

<g transform="matrix( 0.1421051025390625, 0, 0, 0.1421051025390625, -21.6,-25.65) ">
<use xlink:href="#Symbol_4_0_Layer0_16_FILL"/>
</g>

<g transform="matrix( 0.1421051025390625, 0, 0, 0.1421051025390625, -21.6,-25.65) ">
<use xlink:href="#Symbol_4_0_Layer0_17_FILL"/>
</g>

<g transform="matrix( 0.1421051025390625, 0, 0, 0.1421051025390625, -21.6,-25.65) ">
<use xlink:href="#Symbol_4_0_Layer0_18_FILL"/>
</g>

<g transform="matrix( 0.1421051025390625, 0, 0, 0.1421051025390625, -21.6,-25.65) ">
<use xlink:href="#Symbol_4_0_Layer0_19_FILL"/>
</g>

<g transform="matrix( 0.1421051025390625, 0, 0, 0.1421051025390625, -21.6,-25.65) ">
<use xlink:href="#Symbol_4_0_Layer0_20_FILL"/>
</g>

<g transform="matrix( 0.1421051025390625, 0, 0, 0.1421051025390625, -21.6,-25.65) ">
<use xlink:href="#Symbol_4_0_Layer0_21_FILL"/>
</g>

<g transform="matrix( 0.1421051025390625, 0, 0, 0.1421051025390625, -21.6,-25.65) ">
<use xlink:href="#Symbol_4_0_Layer0_22_FILL"/>
</g>

<g transform="matrix( 0.1421051025390625, 0, 0, 0.1421051025390625, -21.6,-25.65) ">
<use xlink:href="#Symbol_4_0_Layer0_23_FILL"/>
</g>

<g transform="matrix( 0.1421051025390625, 0, 0, 0.1421051025390625, -21.6,-25.65) ">
<use xlink:href="#Symbol_4_0_Layer0_24_FILL"/>
</g>

<g transform="matrix( 0.1421051025390625, 0, 0, 0.1421051025390625, -21.6,-25.65) ">
<use xlink:href="#Symbol_4_0_Layer0_25_FILL"/>
</g>

<g transform="matrix( 0.1421051025390625, 0, 0, 0.1421051025390625, -21.6,-25.65) ">
<use xlink:href="#Symbol_4_0_Layer0_26_FILL"/>
</g>

<g transform="matrix( 0.1421051025390625, 0, 0, 0.1421051025390625, -21.6,-25.65) ">
<use xlink:href="#Symbol_4_0_Layer0_27_FILL"/>
</g>
</g>
</g>
</svg>
