
<svg xmlns="http://www.w3.org/2000/svg" version="1.1" xmlns:xlink="http://www.w3.org/1999/xlink" preserveAspectRatio="none" x="0px" y="0px" width="243px" height="65px" viewBox="0 0 243 65">
<defs>
<linearGradient id="Gradient_1" gradientUnits="userSpaceOnUse" x1="373.0375" y1="335.9125" x2="840.4625" y2="-131.5125" spreadMethod="pad">
<stop  offset="0%" stop-color="#3AE5FF"/>

<stop  offset="100%" stop-color="#000BFF"/>
</linearGradient>

<linearGradient id="Gradient_2" gradientUnits="userSpaceOnUse" x1="303.69999999999993" y1="342.55" x2="765.1" y2="-118.85000000000002" spreadMethod="pad">
<stop  offset="0%" stop-color="#3AE5FF"/>

<stop  offset="100%" stop-color="#000BFF"/>
</linearGradient>

<linearGradient id="Gradient_3" gradientUnits="userSpaceOnUse" x1="410.2875" y1="525.0125" x2="865.6125000000001" y2="69.6875" spreadMethod="pad">
<stop  offset="0%" stop-color="#3AE5FF"/>

<stop  offset="100%" stop-color="#000BFF"/>
</linearGradient>

<linearGradient id="Gradient_4" gradientUnits="userSpaceOnUse" x1="165.03749999999997" y1="279.76250000000005" x2="620.3625" y2="-175.56250000000003" spreadMethod="pad">
<stop  offset="0%" stop-color="#3AE5FF"/>

<stop  offset="100%" stop-color="#000BFF"/>
</linearGradient>

<linearGradient id="Gradient_5" gradientUnits="userSpaceOnUse" x1="403.5" y1="594.05" x2="852.8" y2="144.74999999999997" spreadMethod="pad">
<stop  offset="0%" stop-color="#3AE5FF"/>

<stop  offset="100%" stop-color="#000BFF"/>
</linearGradient>

<linearGradient id="Gradient_6" gradientUnits="userSpaceOnUse" x1="168.65" y1="359.20000000000005" x2="617.95" y2="-90.1" spreadMethod="pad">
<stop  offset="0%" stop-color="#3AE5FF"/>

<stop  offset="100%" stop-color="#000BFF"/>
</linearGradient>

<linearGradient id="Gradient_7" gradientUnits="userSpaceOnUse" x1="370.3875" y1="636.6125" x2="813.6125" y2="193.3875" spreadMethod="pad">
<stop  offset="0%" stop-color="#3AE5FF"/>

<stop  offset="100%" stop-color="#000BFF"/>
</linearGradient>

<linearGradient id="Gradient_8" gradientUnits="userSpaceOnUse" x1="205.58749999999998" y1="471.8125" x2="648.8125" y2="28.587499999999977" spreadMethod="pad">
<stop  offset="0%" stop-color="#3AE5FF"/>

<stop  offset="100%" stop-color="#000BFF"/>
</linearGradient>

<linearGradient id="Gradient_9" gradientUnits="userSpaceOnUse" x1="434.2375" y1="700.4625000000001" x2="877.4625000000001" y2="257.2375" spreadMethod="pad">
<stop  offset="0%" stop-color="#3AE5FF"/>

<stop  offset="100%" stop-color="#000BFF"/>
</linearGradient>

<linearGradient id="Gradient_10" gradientUnits="userSpaceOnUse" x1="345.3375" y1="687.1125" x2="782.4625" y2="249.9875" spreadMethod="pad">
<stop  offset="0%" stop-color="#3AE5FF"/>

<stop  offset="100%" stop-color="#000BFF"/>
</linearGradient>

<linearGradient id="Gradient_11" gradientUnits="userSpaceOnUse" x1="427.0375" y1="768.8625" x2="864.1625" y2="331.73749999999995" spreadMethod="pad">
<stop  offset="0%" stop-color="#3AE5FF"/>

<stop  offset="100%" stop-color="#000BFF"/>
</linearGradient>

<linearGradient id="Gradient_12" gradientUnits="userSpaceOnUse" x1="207.4375" y1="549.2125" x2="644.5625" y2="112.08749999999998" spreadMethod="pad">
<stop  offset="0%" stop-color="#3AE5FF"/>

<stop  offset="100%" stop-color="#000BFF"/>
</linearGradient>

<linearGradient id="Gradient_13" gradientUnits="userSpaceOnUse" x1="165.21249999999998" y1="582.3875" x2="596.1875" y2="151.41249999999997" spreadMethod="pad">
<stop  offset="0%" stop-color="#3AE5FF"/>

<stop  offset="100%" stop-color="#000BFF"/>
</linearGradient>

<linearGradient id="Gradient_14" gradientUnits="userSpaceOnUse" x1="285.7125" y1="702.9375" x2="716.6875" y2="271.9625" spreadMethod="pad">
<stop  offset="0%" stop-color="#3AE5FF"/>

<stop  offset="100%" stop-color="#000BFF"/>
</linearGradient>

<linearGradient id="Gradient_15" gradientUnits="userSpaceOnUse" x1="402.21250000000003" y1="819.3875" x2="833.1875" y2="388.41249999999997" spreadMethod="pad">
<stop  offset="0%" stop-color="#3AE5FF"/>

<stop  offset="100%" stop-color="#000BFF"/>
</linearGradient>

<linearGradient id="Gradient_16" gradientUnits="userSpaceOnUse" x1="344.1125" y1="761.3375000000001" x2="775.0875000000001" y2="330.3625" spreadMethod="pad">
<stop  offset="0%" stop-color="#3AE5FF"/>

<stop  offset="100%" stop-color="#000BFF"/>
</linearGradient>

<linearGradient id="Gradient_17" gradientUnits="userSpaceOnUse" x1="160.81249999999997" y1="653.1875" x2="585.5875" y2="228.4125" spreadMethod="pad">
<stop  offset="0%" stop-color="#3AE5FF"/>

<stop  offset="100%" stop-color="#000BFF"/>
</linearGradient>

<linearGradient id="Gradient_18" gradientUnits="userSpaceOnUse" x1="237.4625" y1="729.8375000000001" x2="662.2375000000001" y2="305.0625" spreadMethod="pad">
<stop  offset="0%" stop-color="#3AE5FF"/>

<stop  offset="100%" stop-color="#000BFF"/>
</linearGradient>

<linearGradient id="Gradient_19" gradientUnits="userSpaceOnUse" x1="390.01249999999993" y1="882.3875" x2="814.7875" y2="457.61249999999995" spreadMethod="pad">
<stop  offset="0%" stop-color="#3AE5FF"/>

<stop  offset="100%" stop-color="#000BFF"/>
</linearGradient>

<linearGradient id="Gradient_20" gradientUnits="userSpaceOnUse" x1="335.36249999999995" y1="827.7875" x2="760.1375" y2="403.01249999999993" spreadMethod="pad">
<stop  offset="0%" stop-color="#3AE5FF"/>

<stop  offset="100%" stop-color="#000BFF"/>
</linearGradient>

<linearGradient id="Gradient_21" gradientUnits="userSpaceOnUse" x1="398.2625" y1="965.5875000000001" x2="816.7375" y2="547.1125" spreadMethod="pad">
<stop  offset="0%" stop-color="#3AE5FF"/>

<stop  offset="100%" stop-color="#000BFF"/>
</linearGradient>

<linearGradient id="Gradient_22" gradientUnits="userSpaceOnUse" x1="176.21249999999998" y1="743.5374999999999" x2="594.6875" y2="325.06249999999994" spreadMethod="pad">
<stop  offset="0%" stop-color="#3AE5FF"/>

<stop  offset="100%" stop-color="#000BFF"/>
</linearGradient>

<linearGradient id="Gradient_23" gradientUnits="userSpaceOnUse" x1="339.56249999999994" y1="906.8875" x2="758.0374999999999" y2="488.41249999999997" spreadMethod="pad">
<stop  offset="0%" stop-color="#3AE5FF"/>

<stop  offset="100%" stop-color="#000BFF"/>
</linearGradient>

<linearGradient id="Gradient_24" gradientUnits="userSpaceOnUse" x1="404.2" y1="1046.2" x2="816.3" y2="634.0999999999999" spreadMethod="pad">
<stop  offset="0%" stop-color="#3AE5FF"/>

<stop  offset="100%" stop-color="#000BFF"/>
</linearGradient>

<linearGradient id="Gradient_25" gradientUnits="userSpaceOnUse" x1="346.7" y1="988.7" x2="758.8" y2="576.5999999999999" spreadMethod="pad">
<stop  offset="0%" stop-color="#3AE5FF"/>

<stop  offset="100%" stop-color="#000BFF"/>
</linearGradient>

<linearGradient id="Gradient_26" gradientUnits="userSpaceOnUse" x1="359.8375" y1="1076.3125" x2="765.4625" y2="670.6875" spreadMethod="pad">
<stop  offset="0%" stop-color="#3AE5FF"/>

<stop  offset="100%" stop-color="#000BFF"/>
</linearGradient>

<linearGradient id="Gradient_27" gradientUnits="userSpaceOnUse" x1="400.1875" y1="1116.6625" x2="805.8125" y2="711.0375" spreadMethod="pad">
<stop  offset="0%" stop-color="#3AE5FF"/>

<stop  offset="100%" stop-color="#000BFF"/>
</linearGradient>

<linearGradient id="Gradient_28" gradientUnits="userSpaceOnUse" x1="382.36249999999995" y1="1173.0375" x2="781.4375" y2="773.9625" spreadMethod="pad">
<stop  offset="0%" stop-color="#3AE5FF"/>

<stop  offset="100%" stop-color="#000BFF"/>
</linearGradient>

<g id="Layer1_0_FILL">
<path fill="#0049A7" stroke="none" d="
M 139.3 39.4
L 141.6 39.4 141.6 49.6
Q 141.6 51.1 142.15 52.05 142.75 52.95 143.75 53.45 144.75 53.9 145.95 53.9 146.65 53.9 147.3 53.75 147.9 53.6 148.5 53.35
L 148.5 51.95
Q 147.85 52.25 147.3 52.35 146.75 52.5 146.2 52.5 144.8 52.5 143.95 51.8 143.1 51.1 143.05 49.45
L 143.05 39.4 148.55 39.4 148.55 38 143.05 38 143.05 33 141.6 33 141.6 38 139.3 38 139.3 39.4
M 126.05 31.25
L 124.55 31.25 124.55 53.6 126.05 53.6 126.05 49.8 129.85 46 136.05 53.6 137.9 53.6 130.9 44.9 137.7 38 135.7 38 126.05 48 126.05 31.25
M 169.5 45.75
L 169.5 45.85
Q 169.5 48.3 170.55 50.1 171.6 51.95 173.3 52.95 175.05 53.95 177.15 53.95 179.35 53.95 180.9 53.15 182.4 52.35 183.6 51.05
L 182.55 50.1
Q 181.6 51.2 180.3 51.85 179 52.55 177.2 52.55 175.65 52.55 174.3 51.85 172.95 51.1 172.1 49.75 171.25 48.35 171.05 46.4
L 184 46.4
Q 184.05 46.25 184.05 46.15 184.05 46 184.05 45.85
L 184.05 45.8
Q 184.05 43.45 183.15 41.65 182.3 39.8 180.7 38.7 179.1 37.65 176.85 37.65 174.75 37.65 173.1 38.75 171.4 39.8 170.45 41.65 169.5 43.5 169.5 45.75
M 171.05 45.05
Q 171.2 43.3 172 41.95 172.75 40.6 174 39.8 175.25 39 176.8 39 178.6 39.05 179.8 39.85 181.05 40.7 181.65 42.1 182.3 43.45 182.4 45.05
L 171.05 45.05
M 165.75 44.05
Q 165.75 42.15 165 40.7 164.3 39.3 162.9 38.45 161.5 37.65 159.55 37.65 157.4 37.65 156.05 38.55 154.65 39.5 153.9 40.9
L 153.9 31.25 152.4 31.25 152.4 53.6 153.9 53.6 153.9 44.6
Q 153.9 42.95 154.6 41.7 155.35 40.45 156.55 39.7 157.75 39 159.3 39 161.7 39.05 162.95 40.45 164.25 41.9 164.25 44.3
L 164.25 53.6 165.75 53.6 165.75 44.05
M 206.65 42.9
L 206.65 42.85
Q 206.6 39.8 205.2 37.4 203.75 35 201.2 33.6 198.65 32.2 195.25 32.2
L 188.15 32.2 188.15 53.6 195.25 53.6
Q 198.65 53.55 201.2 52.15 203.75 50.75 205.2 48.35 206.6 45.95 206.65 42.9
M 203.8 38.25
Q 204.95 40.3 205 42.9
L 205 42.95
Q 204.95 45.55 203.8 47.6 202.6 49.65 200.45 50.9 198.25 52.1 195.25 52.15
L 189.7 52.15 189.7 33.65 195.25 33.65
Q 198.25 33.65 200.45 34.9 202.6 36.15 203.8 38.25
M 109.1 42.35
Q 109.95 40.85 111.35 39.95 112.75 39.05 114.55 39.05 116.3 39.05 117.5 39.8 118.75 40.55 119.75 41.6
L 120.85 40.5
Q 119.75 39.3 118.25 38.5 116.75 37.65 114.6 37.65 112.35 37.65 110.55 38.8 108.75 39.9 107.7 41.75 106.65 43.6 106.65 45.8
L 106.65 45.85
Q 106.65 48.1 107.7 49.9 108.75 51.75 110.55 52.85 112.3 53.95 114.6 53.95 116.75 53.95 118.25 53.1 119.75 52.25 120.95 50.9
L 119.9 49.95
Q 118.9 51.1 117.6 51.8 116.3 52.55 114.7 52.55 112.85 52.55 111.4 51.65 109.95 50.75 109.1 49.25 108.25 47.7 108.25 45.8
L 108.25 45.75
Q 108.25 43.85 109.1 42.35
M 89.45 49
L 89.45 49.05
Q 89.5 50.7 90.4 51.8 91.25 52.9 92.65 53.4 94 53.95 95.5 53.95 96.95 53.95 98.1 53.55 99.25 53.1 100.1 52.45 100.9 51.8 101.45 51
L 101.45 53.6 102.9 53.6 102.9 43.85
Q 102.9 40.85 101.15 39.3 99.45 37.75 96.4 37.75 94.8 37.75 93.45 38.1 92.15 38.5 90.85 39.1
L 91.45 40.4
Q 92.5 39.85 93.7 39.5 94.9 39.15 96.3 39.15 98.75 39.15 100.1 40.35 101.45 41.55 101.45 43.95
L 101.45 44.6
Q 100.35 44.3 99.1 44.15 97.9 43.95 96.3 43.95 94.25 43.95 92.75 44.55 91.2 45.1 90.35 46.25 89.5 47.4 89.45 49
M 91.05 49
L 91.05 48.9
Q 91.05 47.25 92.4 46.3 93.7 45.3 96.2 45.3 97.85 45.3 99.2 45.5 100.5 45.7 101.5 46
L 101.5 47.75
Q 101.45 49.2 100.65 50.25 99.85 51.35 98.5 51.95 97.2 52.55 95.6 52.55 94.35 52.55 93.35 52.15 92.3 51.7 91.7 50.95 91.05 50.1 91.05 49
M 85.3 32.2
L 83.75 32.2 83.75 42.1 70 42.1 70 32.2 68.45 32.2 68.45 53.6 70 53.6 70 43.55 83.75 43.55 83.75 53.6 85.3 53.6 85.3 32.2 Z"/>

<path fill="#10BAD4" stroke="none" d="
M 226.25 38
L 232.35 45.65 225.95 53.6 227.8 53.6 233.3 46.65 238.8 53.6 240.65 53.6 234.25 45.6 240.4 38 238.6 38 233.35 44.6 228.1 38 226.25 38 Z"/>

<path fill="#0078B9" stroke="none" d="
M 210.05 45.75
L 210.05 45.85
Q 210.05 48.3 211.1 50.1 212.15 51.95 213.85 52.95 215.6 53.95 217.7 53.95 219.9 53.95 221.45 53.15 222.95 52.35 224.15 51.05
L 223.1 50.1
Q 222.15 51.2 220.85 51.85 219.55 52.55 217.75 52.55 216.2 52.55 214.85 51.85 213.5 51.1 212.65 49.75 211.8 48.35 211.6 46.4
L 224.55 46.4
Q 224.6 46.25 224.6 46.15 224.6 46 224.6 45.85
L 224.6 45.8
Q 224.6 43.45 223.7 41.65 222.85 39.8 221.25 38.7 219.65 37.65 217.4 37.65 215.3 37.65 213.65 38.75 211.95 39.8 211 41.65 210.05 43.5 210.05 45.75
M 211.6 45.05
Q 211.75 43.3 212.55 41.95 213.3 40.6 214.55 39.8 215.8 39 217.35 39 219.15 39.05 220.35 39.85 221.6 40.7 222.2 42.1 222.85 43.45 222.95 45.05
L 211.6 45.05 Z"/>

<path fill="#019AD6" stroke="none" d="
M 109.05 21.4
L 109.05 21.45
Q 109.1 21.95 109.4 22.25 109.7 22.6 110.15 22.75 110.6 22.95 111.1 23.05 111.55 23.2 111.9 23.35 112.25 23.45 112.5 23.7 112.7 23.9 112.7 24.25
L 112.7 24.3
Q 112.7 24.8 112.3 25.1 111.9 25.45 111.25 25.45 110.7 25.45 110.15 25.25 109.6 25.05 109.1 24.65
L 108.8 25.1
Q 109.25 25.5 109.9 25.75 110.55 25.95 111.25 25.95 111.8 25.95 112.25 25.75 112.75 25.55 113 25.15 113.3 24.75 113.3 24.2 113.3 23.65 113 23.35 112.7 23.05 112.25 22.85 111.8 22.65 111.3 22.5 110.9 22.4 110.5 22.25 110.15 22.1 109.9 21.9 109.65 21.7 109.65 21.35 109.65 20.85 110.05 20.6 110.4 20.3 111 20.3 111.5 20.3 111.95 20.45 112.45 20.6 112.85 20.9
L 113.15 20.4
Q 112.7 20.1 112.15 19.95 111.6 19.75 111.05 19.75 110.15 19.75 109.6 20.2 109.1 20.65 109.05 21.4
M 105.45 19.75
Q 104.65 19.75 104 20.15 103.4 20.55 103 21.25 102.65 21.95 102.65 22.85 102.65 23.8 103.05 24.5 103.45 25.2 104.1 25.6 104.75 26 105.55 26 106.4 26 107 25.7 107.6 25.35 108.05 24.85
L 107.65 24.5
Q 107.3 24.9 106.75 25.2 106.25 25.45 105.6 25.45 105 25.45 104.5 25.15 103.95 24.9 103.65 24.35 103.3 23.85 103.25 23.1
L 108.2 23.1
Q 108.2 23.05 108.2 23 108.2 22.95 108.2 22.9
L 108.2 22.85
Q 108.2 21.95 107.9 21.25 107.55 20.55 106.95 20.15 106.3 19.75 105.45 19.75
M 104.35 20.55
Q 104.85 20.25 105.45 20.25 106.15 20.25 106.6 20.6 107.05 20.9 107.3 21.45 107.55 21.95 107.6 22.6
L 103.25 22.6
Q 103.3 21.9 103.6 21.4 103.9 20.85 104.35 20.55
M 102.45 19.75
Q 101.85 19.75 101.35 20 100.85 20.2 100.45 20.6 100.05 21.05 99.8 21.55
L 99.8 19.85 99.25 19.85 99.25 25.85 99.8 25.85 99.8 23.4
Q 99.85 22.45 100.2 21.75 100.55 21.1 101.1 20.75 101.7 20.4 102.4 20.4
L 102.45 20.4 102.45 19.75
M 94.25 20.45
Q 94.75 20.3 95.25 20.3 96.2 20.3 96.7 20.8 97.25 21.25 97.25 22.15
L 97.25 22.4
Q 96.8 22.3 96.35 22.2 95.9 22.15 95.25 22.15 94.5 22.15 93.9 22.35 93.3 22.6 93 23.05 92.65 23.45 92.65 24.1 92.65 24.75 93 25.15 93.35 25.6 93.85 25.8 94.4 26 94.95 26 95.55 26 95.95 25.85 96.4 25.65 96.7 25.4 97.05 25.15 97.25 24.85
L 97.25 25.85 97.8 25.85 97.8 22.1
Q 97.8 20.95 97.15 20.35 96.45 19.75 95.3 19.75 94.7 19.8 94.2 19.9 93.7 20.05 93.2 20.3
L 93.4 20.8
Q 93.8 20.6 94.25 20.45
M 93.25 24.1
L 93.25 24.05
Q 93.25 23.4 93.75 23.05 94.25 22.65 95.25 22.65 95.85 22.65 96.35 22.75 96.9 22.85 97.25 22.95
L 97.25 23.6
Q 97.25 24.15 96.95 24.55 96.65 25 96.1 25.2 95.6 25.45 95 25.45 94.55 25.45 94.15 25.3 93.75 25.15 93.5 24.8 93.25 24.5 93.25 24.1
M 87.1 17.3
L 86.55 17.3 86.55 25.85 87.1 25.85 87.1 22.4
Q 87.1 21.75 87.4 21.3 87.65 20.8 88.15 20.55 88.6 20.25 89.2 20.25 90.1 20.25 90.6 20.8 91.1 21.35 91.1 22.3
L 91.1 25.85 91.65 25.85 91.65 22.2
Q 91.65 21.45 91.4 20.9 91.1 20.35 90.55 20.05 90.05 19.75 89.3 19.75 88.45 19.75 87.95 20.1 87.4 20.45 87.1 21
L 87.1 17.3
M 85.2 20.4
Q 84.75 20.1 84.2 19.95 83.65 19.75 83.1 19.75 82.2 19.75 81.65 20.2 81.15 20.65 81.1 21.4
L 81.1 21.45
Q 81.15 21.95 81.45 22.25 81.75 22.6 82.2 22.75 82.65 22.95 83.15 23.05 83.6 23.2 83.95 23.35 84.3 23.45 84.55 23.7 84.75 23.9 84.75 24.25
L 84.75 24.3
Q 84.75 24.8 84.35 25.1 83.95 25.45 83.3 25.45 82.75 25.45 82.2 25.25 81.65 25.05 81.15 24.65
L 80.85 25.1
Q 81.3 25.5 81.95 25.75 82.6 25.95 83.3 25.95 83.85 25.95 84.3 25.75 84.8 25.55 85.05 25.15 85.35 24.75 85.35 24.2 85.35 23.65 85.05 23.35 84.75 23.05 84.3 22.85 83.85 22.65 83.35 22.5 82.95 22.4 82.55 22.25 82.2 22.1 81.95 21.9 81.7 21.7 81.7 21.35 81.7 20.85 82.1 20.6 82.45 20.3 83.05 20.3 83.55 20.3 84 20.45 84.5 20.6 84.9 20.9
L 85.2 20.4
M 78.15 17.95
L 77.55 17.95 77.55 19.85 76.7 19.85 76.7 20.4 77.55 20.4 77.55 24.3
Q 77.55 24.9 77.8 25.25 78 25.6 78.4 25.8 78.75 25.95 79.25 25.95 79.5 25.95 79.75 25.9 80 25.85 80.2 25.75
L 80.2 25.2
Q 79.95 25.3 79.75 25.35 79.55 25.4 79.35 25.4 78.8 25.45 78.45 25.15 78.15 24.9 78.15 24.25
L 78.15 20.4 80.25 20.4 80.25 19.85 78.15 19.85 78.15 17.95
M 75.6 19.85
L 75 19.85 75 25.85 75.6 25.85 75.6 19.85
M 74.95 18.3
L 75.65 18.3 75.65 17.5 74.95 17.5 74.95 18.3
M 68.35 17.3
L 67.8 17.3 67.8 25.85 68.35 25.85 68.35 24.55
Q 68.6 24.95 68.95 25.25 69.3 25.6 69.75 25.8 70.25 26 70.85 26 71.55 26 72.25 25.6 72.9 25.25 73.3 24.55 73.7 23.85 73.75 22.85 73.7 21.85 73.3 21.15 72.9 20.45 72.25 20.1 71.55 19.75 70.85 19.75 70.25 19.75 69.8 19.95 69.3 20.15 68.95 20.45 68.6 20.8 68.35 21.2
L 68.35 17.3
M 68.7 24.2
Q 68.35 23.65 68.35 22.85 68.35 22.1 68.7 21.5 69.05 20.95 69.6 20.6 70.15 20.3 70.75 20.3 71.4 20.3 71.95 20.6 72.45 20.9 72.8 21.5 73.1 22.05 73.1 22.85
L 73.1 22.9
Q 73.1 23.7 72.8 24.25 72.5 24.85 71.95 25.15 71.45 25.45 70.75 25.45 70.15 25.45 69.6 25.1 69.05 24.8 68.7 24.2 Z"/>
</g>

<g id="Duplicate_Items_Folder_Symbol_4_0_Layer0_0_FILL">
<path fill="url(#Gradient_1)" stroke="none" d="
M 487.45 401.3
L 487.55 401.25 487.55 398.5
Q 487.55 361.95 455.3 339.5
L 294.9 234.15 487.45 401.3 Z"/>
</g>

<g id="Duplicate_Items_Folder_Symbol_4_0_Layer0_1_FILL">
<path fill="url(#Gradient_2)" stroke="none" d="
M 420.05 390.7
Q 423.75 393.3 424.75 395 425.4 396.15 425.4 398.5
L 425.4 400.15 485.05 447.35 487.55 445.35 487.55 405.15 484.7 407.45 197.85 180.65
Q 184.8 180.8 174.25 187.2 169.45 190.1 165.15 194.4
L 380.75 364.9 420.05 390.7 Z"/>
</g>

<g id="Duplicate_Items_Folder_Symbol_4_0_Layer0_2_FILL">
<path fill="url(#Gradient_3)" stroke="none" d="
M 713.6 317.1
Q 701.3 317.35 690.65 323
L 487.55 456.25 487.55 450.6 482.05 454.8 425.4 414.55 425.4 452.65 482.7 493.4 713.6 317.1 Z"/>
</g>

<g id="Duplicate_Items_Folder_Symbol_4_0_Layer0_3_FILL">
<path fill="url(#Gradient_4)" stroke="none" d="
M 152.55 220.65
Q 151.85 225.45 151.85 229.15
L 151.85 258.3 214 302.45 214 264.3 152.55 220.65 Z"/>
</g>

<g id="Duplicate_Items_Folder_Symbol_4_0_Layer0_4_FILL">
<path fill="url(#Gradient_5)" stroke="none" d="
M 738.7 323.6
Q 737.55 322.9 735.15 321.8
L 479.35 502.15 425.4 468.25 425.4 504.95 480.35 539.5 487.55 534.4
Q 487.6 532.4 488.35 531.2 489.45 529.5 492.85 527.1
L 567.05 478.35 756.85 344.55
Q 751 331 738.7 323.6 Z"/>
</g>

<g id="Duplicate_Items_Folder_Symbol_4_0_Layer0_5_FILL">
<path fill="url(#Gradient_6)" stroke="none" d="
M 151.85 296.5
L 151.85 333.2 226.95 380.35 219.65 375.55
Q 215.75 372.85 214.7 371.1 214 369.9 214 367.55
L 214 335.5 151.85 296.5 Z"/>
</g>

<g id="Duplicate_Items_Folder_Symbol_4_0_Layer0_6_FILL">
<path fill="url(#Gradient_7)" stroke="none" d="
M 487.55 579.45
L 487.55 542.45 476.65 549.5 425.4 521.65 425.4 542.15
Q 425.4 544.5 424.8 545.6 423.85 547.3 420.45 549.65
L 416.55 552.2 478.05 585.55 487.55 579.45 Z"/>
</g>

<g id="Duplicate_Items_Folder_Symbol_4_0_Layer0_7_FILL">
<path fill="url(#Gradient_8)" stroke="none" d="
M 182.55 425.3
L 319.45 499.55 348.9 480.2 152.2 373.45
Q 154.55 404.6 182.55 425.3 Z"/>
</g>

<g id="Duplicate_Items_Folder_Symbol_4_0_Layer0_8_FILL">
<path fill="url(#Gradient_9)" stroke="none" d="
M 698.95 406.25
L 698.95 443.25 761.1 403.15 761.1 366.2 698.95 406.25 Z"/>
</g>

<g id="Duplicate_Items_Folder_Symbol_4_0_Layer0_9_FILL">
<path fill="url(#Gradient_10)" stroke="none" d="
M 399.9 563.15
L 369.2 583.35 475.7 631.7 487.55 624.8 487.55 588.85 473.95 596.75 399.9 563.15 Z"/>
</g>

<g id="Duplicate_Items_Folder_Symbol_4_0_Layer0_10_FILL">
<path fill="url(#Gradient_11)" stroke="none" d="
M 761.1 465.75
L 761.1 429.85 698.95 465.95 698.95 501.9 761.1 465.75 Z"/>
</g>

<g id="Duplicate_Items_Folder_Symbol_4_0_Layer0_11_FILL">
<path fill="url(#Gradient_12)" stroke="none" d="
M 264.35 535.75
L 295.05 515.55 228.1 485.15 197.4 505.35 264.35 535.75 Z"/>
</g>

<g id="Duplicate_Items_Folder_Symbol_4_0_Layer0_12_FILL">
<path fill="url(#Gradient_13)" stroke="none" d="
M 214 583.85
L 214 573.05
Q 214 570.7 214.6 569.6 215.55 567.9 218.9 565.55
L 231.7 557.15 164.55 532.85
Q 155.3 545.6 152.8 561.65
L 214 583.85 Z"/>
</g>

<g id="Duplicate_Items_Folder_Symbol_4_0_Layer0_13_FILL">
<path fill="url(#Gradient_14)" stroke="none" d="
M 418.9 625
L 345.95 598.6 313.5 619.9 386.4 646.3 418.9 625 Z"/>
</g>

<g id="Duplicate_Items_Folder_Symbol_4_0_Layer0_14_FILL">
<path fill="url(#Gradient_15)" stroke="none" d="
M 755.05 532.55
Q 761.1 519.15 761.1 503.95
L 761.1 494.45 568.9 593.6 549 606.7 576.4 624.7 755.05 532.55 Z"/>
</g>

<g id="Duplicate_Items_Folder_Symbol_4_0_Layer0_15_FILL">
<path fill="url(#Gradient_16)" stroke="none" d="
M 425.4 660.45
L 473.4 677.85 487.55 670.55 487.55 635.6 471.25 644 425.4 627.4 425.4 660.45 Z"/>
</g>

<g id="Duplicate_Items_Folder_Symbol_4_0_Layer0_16_FILL">
<path fill="url(#Gradient_17)" stroke="none" d="
M 151.85 607.9
L 151.85 638.6 214 655.25 214 623.05 152.2 606.55 151.85 607.9 Z"/>
</g>

<g id="Duplicate_Items_Folder_Symbol_4_0_Layer0_17_FILL">
<path fill="url(#Gradient_18)" stroke="none" d="
M 281.25 641.05
L 246.45 663.95 326.8 685.45 361.6 662.6 281.25 641.05 Z"/>
</g>

<g id="Duplicate_Items_Folder_Symbol_4_0_Layer0_18_FILL">
<path fill="url(#Gradient_19)" stroke="none" d="
M 662.2 606.7
L 673.25 599.45 592.85 635.5 623.65 655.75 690.95 625.55 662.2 606.7 Z"/>
</g>

<g id="Duplicate_Items_Folder_Symbol_4_0_Layer0_19_FILL">
<path fill="url(#Gradient_20)" stroke="none" d="
M 468.5 691.2
L 425.45 679.65
Q 425.75 698.9 435.45 714.55
L 471.15 724.1 518.2 702.95 493.15 686.5
Q 489.55 684 488.4 682.3
L 468.5 691.2 Z"/>
</g>

<g id="Duplicate_Items_Folder_Symbol_4_0_Layer0_20_FILL">
<path fill="url(#Gradient_21)" stroke="none" d="
M 728.15 650
L 717.8 643.15 645.9 670.3 678 691.4 745.55 665.9
Q 738.05 656.9 728.15 650 Z"/>
</g>

<g id="Duplicate_Items_Folder_Symbol_4_0_Layer0_21_FILL">
<path fill="url(#Gradient_22)" stroke="none" d="
M 151.85 711.45
Q 151.85 713.2 152.15 716.7
L 253.1 733.8 291.3 708.75 153.95 685.45 151.85 698.05 151.85 711.45 Z"/>
</g>

<g id="Duplicate_Items_Folder_Symbol_4_0_Layer0_22_FILL">
<path fill="url(#Gradient_23)" stroke="none" d="
M 465.75 738.3
L 456.75 736.8 493.45 761.05 565.35 733.95 533.25 712.85 465.75 738.3 Z"/>
</g>

<g id="Duplicate_Items_Folder_Symbol_4_0_Layer0_23_FILL">
<path fill="url(#Gradient_24)" stroke="none" d="
M 698.95 713.6
L 698.95 746.1 761.1 727.2 761.1 709.45
Q 761.1 702.8 759.6 695.2
L 698.95 713.6 Z"/>
</g>

<g id="Duplicate_Items_Folder_Symbol_4_0_Layer0_24_FILL">
<path fill="url(#Gradient_25)" stroke="none" d="
M 620.3 770
L 586.5 747.8 509.1 771.35 542.9 793.55 620.3 770 Z"/>
</g>

<g id="Duplicate_Items_Folder_Symbol_4_0_Layer0_25_FILL">
<path fill="url(#Gradient_26)" stroke="none" d="
M 565.45 808.35
L 601.5 832 685.6 812.9 649.55 789.2 565.45 808.35 Z"/>
</g>

<g id="Duplicate_Items_Folder_Symbol_4_0_Layer0_26_FILL">
<path fill="url(#Gradient_27)" stroke="none" d="
M 761.1 763.85
L 698.95 778 698.95 809.85 761.1 795.7 761.1 763.85 Z"/>
</g>

<g id="Duplicate_Items_Folder_Symbol_4_0_Layer0_27_FILL">
<path fill="url(#Gradient_28)" stroke="none" d="
M 757.95 866.15
Q 761.1 857.45 761.1 847.85
L 761.1 834.25 633.6 853.05 672.65 878.75 757.95 866.15 Z"/>
</g>
</defs>

<g transform="matrix( 1, 0, 0, 1, 0,0) ">
<use xlink:href="#Layer1_0_FILL"/>
</g>

<g transform="matrix( 0.8886871337890625, 0, 0, 0.8886871337890625, -0.2,2.85) ">
<g transform="matrix( 0.7286376953125, 0, 0, 0.7286376953125, 0.5,-2.9) ">
<g transform="matrix( 0.1421051025390625, 0, 0, 0.1421051025390625, -21.6,-25.65) ">
<use xlink:href="#Duplicate_Items_Folder_Symbol_4_0_Layer0_0_FILL"/>
</g>

<g transform="matrix( 0.1421051025390625, 0, 0, 0.1421051025390625, -21.6,-25.65) ">
<use xlink:href="#Duplicate_Items_Folder_Symbol_4_0_Layer0_1_FILL"/>
</g>

<g transform="matrix( 0.1421051025390625, 0, 0, 0.1421051025390625, -21.6,-25.65) ">
<use xlink:href="#Duplicate_Items_Folder_Symbol_4_0_Layer0_2_FILL"/>
</g>

<g transform="matrix( 0.1421051025390625, 0, 0, 0.1421051025390625, -21.6,-25.65) ">
<use xlink:href="#Duplicate_Items_Folder_Symbol_4_0_Layer0_3_FILL"/>
</g>

<g transform="matrix( 0.1421051025390625, 0, 0, 0.1421051025390625, -21.6,-25.65) ">
<use xlink:href="#Duplicate_Items_Folder_Symbol_4_0_Layer0_4_FILL"/>
</g>

<g transform="matrix( 0.1421051025390625, 0, 0, 0.1421051025390625, -21.6,-25.65) ">
<use xlink:href="#Duplicate_Items_Folder_Symbol_4_0_Layer0_5_FILL"/>
</g>

<g transform="matrix( 0.1421051025390625, 0, 0, 0.1421051025390625, -21.6,-25.65) ">
<use xlink:href="#Duplicate_Items_Folder_Symbol_4_0_Layer0_6_FILL"/>
</g>

<g transform="matrix( 0.1421051025390625, 0, 0, 0.1421051025390625, -21.6,-25.65) ">
<use xlink:href="#Duplicate_Items_Folder_Symbol_4_0_Layer0_7_FILL"/>
</g>

<g transform="matrix( 0.1421051025390625, 0, 0, 0.1421051025390625, -21.6,-25.65) ">
<use xlink:href="#Duplicate_Items_Folder_Symbol_4_0_Layer0_8_FILL"/>
</g>

<g transform="matrix( 0.1421051025390625, 0, 0, 0.1421051025390625, -21.6,-25.65) ">
<use xlink:href="#Duplicate_Items_Folder_Symbol_4_0_Layer0_9_FILL"/>
</g>

<g transform="matrix( 0.1421051025390625, 0, 0, 0.1421051025390625, -21.6,-25.65) ">
<use xlink:href="#Duplicate_Items_Folder_Symbol_4_0_Layer0_10_FILL"/>
</g>

<g transform="matrix( 0.1421051025390625, 0, 0, 0.1421051025390625, -21.6,-25.65) ">
<use xlink:href="#Duplicate_Items_Folder_Symbol_4_0_Layer0_11_FILL"/>
</g>

<g transform="matrix( 0.1421051025390625, 0, 0, 0.1421051025390625, -21.6,-25.65) ">
<use xlink:href="#Duplicate_Items_Folder_Symbol_4_0_Layer0_12_FILL"/>
</g>

<g transform="matrix( 0.1421051025390625, 0, 0, 0.1421051025390625, -21.6,-25.65) ">
<use xlink:href="#Duplicate_Items_Folder_Symbol_4_0_Layer0_13_FILL"/>
</g>

<g transform="matrix( 0.1421051025390625, 0, 0, 0.1421051025390625, -21.6,-25.65) ">
<use xlink:href="#Duplicate_Items_Folder_Symbol_4_0_Layer0_14_FILL"/>
</g>

<g transform="matrix( 0.1421051025390625, 0, 0, 0.1421051025390625, -21.6,-25.65) ">
<use xlink:href="#Duplicate_Items_Folder_Symbol_4_0_Layer0_15_FILL"/>
</g>

<g transform="matrix( 0.1421051025390625, 0, 0, 0.1421051025390625, -21.6,-25.65) ">
<use xlink:href="#Duplicate_Items_Folder_Symbol_4_0_Layer0_16_FILL"/>
</g>

<g transform="matrix( 0.1421051025390625, 0, 0, 0.1421051025390625, -21.6,-25.65) ">
<use xlink:href="#Duplicate_Items_Folder_Symbol_4_0_Layer0_17_FILL"/>
</g>

<g transform="matrix( 0.1421051025390625, 0, 0, 0.1421051025390625, -21.6,-25.65) ">
<use xlink:href="#Duplicate_Items_Folder_Symbol_4_0_Layer0_18_FILL"/>
</g>

<g transform="matrix( 0.1421051025390625, 0, 0, 0.1421051025390625, -21.6,-25.65) ">
<use xlink:href="#Duplicate_Items_Folder_Symbol_4_0_Layer0_19_FILL"/>
</g>

<g transform="matrix( 0.1421051025390625, 0, 0, 0.1421051025390625, -21.6,-25.65) ">
<use xlink:href="#Duplicate_Items_Folder_Symbol_4_0_Layer0_20_FILL"/>
</g>

<g transform="matrix( 0.1421051025390625, 0, 0, 0.1421051025390625, -21.6,-25.65) ">
<use xlink:href="#Duplicate_Items_Folder_Symbol_4_0_Layer0_21_FILL"/>
</g>

<g transform="matrix( 0.1421051025390625, 0, 0, 0.1421051025390625, -21.6,-25.65) ">
<use xlink:href="#Duplicate_Items_Folder_Symbol_4_0_Layer0_22_FILL"/>
</g>

<g transform="matrix( 0.1421051025390625, 0, 0, 0.1421051025390625, -21.6,-25.65) ">
<use xlink:href="#Duplicate_Items_Folder_Symbol_4_0_Layer0_23_FILL"/>
</g>

<g transform="matrix( 0.1421051025390625, 0, 0, 0.1421051025390625, -21.6,-25.65) ">
<use xlink:href="#Duplicate_Items_Folder_Symbol_4_0_Layer0_24_FILL"/>
</g>

<g transform="matrix( 0.1421051025390625, 0, 0, 0.1421051025390625, -21.6,-25.65) ">
<use xlink:href="#Duplicate_Items_Folder_Symbol_4_0_Layer0_25_FILL"/>
</g>

<g transform="matrix( 0.1421051025390625, 0, 0, 0.1421051025390625, -21.6,-25.65) ">
<use xlink:href="#Duplicate_Items_Folder_Symbol_4_0_Layer0_26_FILL"/>
</g>

<g transform="matrix( 0.1421051025390625, 0, 0, 0.1421051025390625, -21.6,-25.65) ">
<use xlink:href="#Duplicate_Items_Folder_Symbol_4_0_Layer0_27_FILL"/>
</g>
</g>
</g>
</svg>
